<?xml version="1.0" encoding="iso-8859-1"?>
<!-- Generator: Adobe Illustrator 15.0.0, SVG Export Plug-In . SVG Version: 6.00 Build 0)  -->
<!DOCTYPE svg PUBLIC "-//W3C//DTD SVG 1.1//EN" "http://www.w3.org/Graphics/SVG/1.1/DTD/svg11.dtd">
<svg version="1.1" xmlns="http://www.w3.org/2000/svg" xmlns:xlink="http://www.w3.org/1999/xlink" x="0px" y="0px" width="126px"
	 height="126px" viewBox="0 0 126 126" style="enable-background:new 0 0 126 126;" xml:space="preserve">
<g id="ts-badge">
  <path style="opacity:0.1;fill:#848383;enable-background:new    ;" d="M91.573,119.102c-1.536-0.929-2.353-2.338-2.354-4.521
          c0-0.072,0-7.749,0-9.377c-1.88,0-44.995,0-46.875,0c0,1.636,0,9.416,0,9.416c0,1.736-0.897,3.242-2.523,4.24
          c-1.342,0.822-3.125,1.277-5.023,1.277s-3.681-0.455-5.023-1.277c-1.626-0.998-2.522-2.504-2.522-4.24c0,0,0-7.78,0-9.416
          c-1.669,0-10.565,0-10.565,0c-0.552,0-1-0.448-1-1V68.301c0-0.01,0-0.02,0.001-0.029l1.055-37.167
          c0.001-0.056,0.008-0.111,0.019-0.168c0.412-2.06,2.455-3.91,6.241-5.658c5.322-2.452,14.021-4.688,25.858-6.641
          c8.784-1.451,16.119-2.195,16.191-2.203c0.032-0.004,0.064-0.006,0.094-0.006l3.141-0.018c0.035,0,0.068,0.002,0.104,0.006
          c1.215,0.117,29.889,2.931,39.611,7.906c3.418,1.75,5.844,3.262,5.9,6.783c0.004,0.051,1.971,37.143,1.971,37.143
          c0,0.018,0.002,0.035,0.002,0.053v35.902c0,0.552-0.448,1-1.001,1c0,0-8.888,0-10.558,0c0,1.636,0,9.416,0,9.416
          c0,3.712-4.01,5.654-7.971,5.654C94.521,120.273,92.828,119.857,91.573,119.102"/>
  <path style="fill:#628DCE;" d="M89.573,117.102c-1.536-0.929-2.353-2.338-2.354-4.521c0-0.072,0-7.749,0-9.377
          c-1.88,0-44.995,0-46.875,0c0,1.636,0,9.416,0,9.416c0,1.736-0.897,3.242-2.523,4.24c-1.342,0.822-3.125,1.277-5.023,1.277
          s-3.681-0.455-5.023-1.277c-1.626-0.998-2.522-2.504-2.522-4.24c0,0,0-7.78,0-9.416c-1.669,0-10.565,0-10.565,0
          c-0.552,0-1-0.448-1-1V66.301c0-0.01,0-0.02,0.001-0.029l1.055-37.167c0.001-0.056,0.008-0.111,0.019-0.168
          c0.412-2.06,2.455-3.91,6.241-5.658c5.322-2.452,14.021-4.688,25.858-6.641c8.784-1.451,16.118-2.195,16.191-2.203
          c0.032-0.004,0.064-0.006,0.094-0.006l3.14-0.018c0.035,0,0.068,0.002,0.104,0.006c1.215,0.117,29.889,2.931,39.611,7.906
          c3.418,1.75,5.844,3.262,5.9,6.783c0.004,0.051,1.971,37.143,1.971,37.143c0,0.018,0.002,0.035,0.002,0.053v35.902
          c0,0.552-0.448,1-1.001,1c0,0-8.888,0-10.558,0c0,1.636,0,9.416,0,9.416c0,3.712-4.01,5.654-7.971,5.654
          C92.521,118.273,90.828,117.857,89.573,117.102"/>
  <path style="fill:#E5EDFD;" d="M66.292,15.411l-3.141,0.018c0,0-29.099,2.933-41.73,8.757c-3.179,1.467-5.313,3.115-5.681,4.947
          l-1.055,37.168v35.902H26.25v10.416c0,6.021,13.091,6.021,13.091,0v-10.416h48.875v10.416c0.003,6.706,13.099,6.021,13.099,0
          v-10.416h11.557V66.301l-1.973-37.168c-0.041-2.911-2-4.203-5.355-5.92C95.879,18.266,66.292,15.411,66.292,15.411L66.292,15.411z"
          />
  <path style="fill:#FFFFFF;" d="M25.459,33.465v10.891h-2.631V33.465h-2.85V31.31h8.331v2.155H25.459L25.459,33.465z M33.599,36.689
          c-0.128-0.005-0.258-0.008-0.393-0.008c-0.22,0-0.438,0.03-0.659,0.091c-0.218,0.061-0.419,0.161-0.603,0.301
          c-0.182,0.141-0.329,0.322-0.438,0.549c-0.11,0.225-0.165,0.503-0.165,0.831v5.902H28.82v-9.83h2.411v1.315h0.037
          c0.257-0.475,0.566-0.855,0.932-1.142c0.367-0.287,0.81-0.431,1.334-0.431c0.073,0,0.148,0.004,0.228,0.01
          c0.08,0.006,0.155,0.016,0.228,0.027v2.412C33.857,36.706,33.727,36.696,33.599,36.689L33.599,36.689z M39.254,44.355
          c-0.086-0.159-0.15-0.327-0.193-0.503c-0.042-0.177-0.082-0.351-0.118-0.521h-0.037c-0.292,0.512-0.63,0.844-1.014,0.996
          c-0.383,0.152-0.88,0.229-1.49,0.229c-0.437,0-0.81-0.076-1.113-0.229c-0.305-0.152-0.549-0.363-0.732-0.631
          c-0.182-0.268-0.316-0.568-0.402-0.904c-0.085-0.334-0.128-0.666-0.128-0.994c0-0.465,0.05-0.863,0.147-1.198
          c0.097-0.335,0.246-0.62,0.446-0.858c0.201-0.236,0.458-0.435,0.769-0.594c0.31-0.158,0.684-0.299,1.123-0.42l1.425-0.385
          c0.378-0.097,0.64-0.23,0.786-0.401s0.219-0.419,0.219-0.749c0-0.377-0.088-0.672-0.265-0.886c-0.177-0.214-0.479-0.32-0.904-0.32
          c-0.391,0-0.683,0.116-0.877,0.348c-0.195,0.231-0.292,0.542-0.292,0.931v0.275h-2.266v-0.238c0-0.572,0.091-1.051,0.274-1.434
          c0.182-0.385,0.429-0.695,0.74-0.932c0.31-0.237,0.676-0.408,1.096-0.512c0.421-0.104,0.868-0.156,1.343-0.156
          c0.756,0,1.365,0.074,1.828,0.221c0.462,0.145,0.821,0.352,1.078,0.62c0.255,0.268,0.429,0.589,0.52,0.96
          c0.092,0.371,0.137,0.776,0.137,1.215v5.17c0,0.463,0.022,0.823,0.064,1.078c0.043,0.256,0.126,0.529,0.247,0.823L39.254,44.355
          L39.254,44.355z M38.943,39.44c-0.171,0.134-0.354,0.24-0.549,0.318c-0.194,0.08-0.372,0.138-0.529,0.174
          c-0.512,0.11-0.877,0.293-1.096,0.549c-0.22,0.256-0.33,0.604-0.33,1.041c0,0.379,0.074,0.701,0.22,0.969
          c0.147,0.268,0.389,0.402,0.73,0.402c0.17,0,0.348-0.027,0.529-0.084c0.184-0.054,0.351-0.142,0.502-0.264
          c0.153-0.121,0.277-0.279,0.375-0.476c0.098-0.194,0.147-0.426,0.147-0.694L38.943,39.44L38.943,39.44z M47.53,44.355v-6.779
          c0-0.512-0.086-0.867-0.257-1.068c-0.17-0.201-0.445-0.302-0.821-0.302c-0.89,0-1.334,0.543-1.334,1.625v6.524h-2.521v-9.83h2.413
          v1.151h0.037c0.266-0.488,0.614-0.844,1.041-1.07c0.426-0.225,0.912-0.338,1.461-0.338c0.804,0,1.422,0.221,1.854,0.658
          c0.432,0.439,0.649,1.152,0.649,2.138v7.291H47.53L47.53,44.355z M55.304,36.344c-0.166-0.237-0.454-0.357-0.869-0.357
          c-0.315,0-0.593,0.089-0.831,0.265c-0.238,0.178-0.355,0.441-0.355,0.796c0,0.244,0.075,0.462,0.228,0.657
          c0.151,0.195,0.441,0.36,0.867,0.494l1.517,0.51c0.791,0.269,1.353,0.619,1.681,1.051c0.329,0.433,0.493,1.021,0.493,1.764
          c0,0.523-0.091,0.979-0.273,1.361c-0.183,0.384-0.437,0.703-0.759,0.959c-0.322,0.256-0.707,0.439-1.151,0.549
          c-0.445,0.109-0.935,0.164-1.471,0.164c-0.706,0-1.294-0.066-1.764-0.2c-0.469-0.134-0.84-0.335-1.113-0.603
          c-0.274-0.269-0.467-0.596-0.576-0.979c-0.11-0.384-0.165-0.812-0.165-1.288v-0.348h2.265v0.329c0,0.427,0.113,0.771,0.338,1.033
          c0.225,0.262,0.552,0.393,0.978,0.393c0.389,0,0.7-0.098,0.932-0.293c0.231-0.193,0.348-0.487,0.348-0.877
          c0-0.316-0.091-0.558-0.274-0.723c-0.182-0.164-0.396-0.295-0.64-0.392l-1.771-0.64c-0.694-0.244-1.218-0.587-1.571-1.031
          c-0.354-0.445-0.531-1.015-0.531-1.71c0-0.401,0.067-0.781,0.201-1.142c0.134-0.359,0.348-0.673,0.639-0.941
          c0.293-0.268,0.668-0.479,1.125-0.639c0.456-0.158,1.008-0.238,1.654-0.238c1.145,0,1.992,0.244,2.539,0.732
          c0.548,0.486,0.823,1.176,0.823,2.063v0.401H55.55C55.55,36.956,55.469,36.581,55.304,36.344L55.304,36.344z M58.838,44.355v-9.83
          h2.521v9.83H58.838L58.838,44.355z M58.838,31.164h2.521v2.155h-2.521V31.164L58.838,31.164z M65.828,42.391
          c0.115,0.164,0.355,0.247,0.721,0.247c0.098,0,0.195-0.003,0.292-0.01c0.099-0.006,0.188-0.016,0.274-0.027v1.755
          c-0.28,0-0.551,0.008-0.813,0.026c-0.262,0.018-0.538,0.027-0.831,0.027c-0.486,0-0.887-0.033-1.195-0.1
          c-0.312-0.067-0.549-0.201-0.713-0.402c-0.164-0.201-0.276-0.466-0.337-0.794c-0.061-0.331-0.092-0.743-0.092-1.244v-5.626h-1.278
          v-1.718h1.278v-2.814h2.521v2.814h1.461v1.718h-1.461v5.316C65.654,41.948,65.711,42.227,65.828,42.391L65.828,42.391z
           M75.007,36.28l2.028,0.877c0.499,0.219,0.906,0.446,1.225,0.684c0.315,0.238,0.569,0.494,0.758,0.768
          c0.189,0.273,0.32,0.575,0.395,0.905c0.07,0.329,0.107,0.694,0.107,1.096c0,1.376-0.397,2.378-1.195,3.006
          c-0.797,0.627-1.909,0.94-3.334,0.94c-1.486,0-2.549-0.323-3.188-0.969c-0.64-0.645-0.96-1.571-0.96-2.776v-0.53h2.633v0.383
          c0,0.305,0.022,0.582,0.072,0.833c0.049,0.249,0.141,0.459,0.273,0.63c0.135,0.17,0.312,0.305,0.539,0.402
          c0.226,0.097,0.509,0.146,0.849,0.146c0.403,0,0.767-0.131,1.088-0.395c0.322-0.262,0.483-0.666,0.483-1.215
          c0-0.292-0.038-0.544-0.118-0.758c-0.078-0.213-0.209-0.404-0.394-0.575c-0.184-0.171-0.424-0.325-0.722-0.466
          c-0.299-0.141-0.667-0.283-1.104-0.43c-0.584-0.193-1.09-0.408-1.518-0.639c-0.426-0.231-0.783-0.502-1.068-0.813
          c-0.285-0.312-0.496-0.67-0.629-1.078c-0.135-0.408-0.201-0.88-0.201-1.416c0-1.292,0.357-2.253,1.078-2.886
          c0.717-0.634,1.705-0.951,2.959-0.951c0.584,0,1.123,0.064,1.617,0.191c0.492,0.128,0.918,0.335,1.278,0.622
          c0.358,0.286,0.64,0.651,0.841,1.096c0.2,0.444,0.301,0.978,0.301,1.6v0.364h-2.52c0-0.621-0.109-1.098-0.329-1.435
          c-0.22-0.335-0.585-0.503-1.097-0.503c-0.293,0-0.536,0.043-0.73,0.13c-0.193,0.085-0.351,0.198-0.466,0.338
          c-0.116,0.139-0.196,0.302-0.237,0.483c-0.043,0.184-0.063,0.371-0.063,0.566c0,0.401,0.085,0.74,0.256,1.014
          C74.082,35.795,74.447,36.048,75.007,36.28L75.007,36.28z M84.9,37.358c-0.03-0.232-0.084-0.442-0.164-0.633
          c-0.079-0.188-0.191-0.339-0.338-0.455c-0.146-0.117-0.342-0.174-0.584-0.174c-0.305,0-0.556,0.07-0.75,0.21
          c-0.193,0.141-0.34,0.347-0.438,0.62c-0.098,0.275-0.164,0.623-0.201,1.042c-0.035,0.421-0.054,0.917-0.054,1.489
          c0,0.609,0.019,1.131,0.054,1.562c0.037,0.433,0.104,0.788,0.201,1.068c0.098,0.281,0.234,0.485,0.411,0.613
          c0.176,0.127,0.405,0.191,0.685,0.191c0.428,0,0.736-0.184,0.934-0.549c0.193-0.365,0.292-0.949,0.292-1.754h2.411
          c0,1.291-0.289,2.275-0.867,2.951c-0.579,0.676-1.538,1.014-2.877,1.014c-0.635,0-1.186-0.076-1.654-0.229
          c-0.468-0.153-0.859-0.426-1.169-0.822c-0.312-0.395-0.545-0.926-0.704-1.59c-0.158-0.663-0.236-1.489-0.236-2.475
          c0-1.012,0.098-1.848,0.293-2.514c0.193-0.663,0.469-1.192,0.82-1.588c0.354-0.396,0.773-0.673,1.262-0.832
          c0.485-0.158,1.023-0.238,1.606-0.238c1.169,0,2.05,0.342,2.642,1.023c0.59,0.684,0.885,1.607,0.885,2.777h-2.41
          C84.947,37.827,84.932,37.589,84.9,37.358L84.9,37.358z M95.342,41.668c-0.134,0.646-0.354,1.185-0.656,1.617
          c-0.306,0.434-0.705,0.753-1.197,0.96c-0.493,0.207-1.1,0.311-1.818,0.311c-0.756,0.012-1.382-0.082-1.881-0.283
          c-0.5-0.201-0.896-0.519-1.188-0.951c-0.293-0.432-0.5-0.974-0.621-1.625c-0.123-0.651-0.184-1.404-0.184-2.256
          c0-0.84,0.066-1.584,0.201-2.229c0.134-0.645,0.354-1.185,0.658-1.616c0.305-0.433,0.703-0.762,1.195-0.988
          c0.494-0.225,1.1-0.338,1.817-0.338c0.756-0.011,1.383,0.09,1.882,0.302c0.499,0.214,0.896,0.539,1.188,0.978
          c0.293,0.439,0.5,0.98,0.621,1.627c0.123,0.646,0.184,1.4,0.184,2.266C95.543,40.28,95.477,41.024,95.342,41.668L95.342,41.668z
           M92.73,36.79c-0.195-0.535-0.549-0.804-1.062-0.804c-0.304,0-0.548,0.086-0.729,0.257c-0.184,0.17-0.32,0.408-0.412,0.713
          c-0.09,0.305-0.148,0.67-0.174,1.096c-0.022,0.426-0.035,0.89-0.035,1.389s0.013,0.961,0.035,1.387
          c0.024,0.428,0.084,0.793,0.174,1.098c0.092,0.305,0.229,0.543,0.412,0.713c0.183,0.171,0.427,0.256,0.729,0.256
          c0.513,0,0.865-0.269,1.062-0.805c0.194-0.535,0.291-1.419,0.291-2.648C93.021,38.21,92.925,37.327,92.73,36.79L92.73,36.79z
           M101.125,36.689c-0.127-0.005-0.258-0.008-0.393-0.008c-0.221,0-0.438,0.03-0.658,0.091c-0.219,0.061-0.42,0.161-0.604,0.301
          c-0.182,0.141-0.328,0.322-0.438,0.549c-0.108,0.225-0.164,0.503-0.164,0.831v5.902h-2.521v-9.83h2.411v1.315h0.037
          c0.257-0.475,0.565-0.855,0.933-1.142c0.365-0.287,0.81-0.431,1.334-0.431c0.072,0,0.147,0.004,0.228,0.01
          c0.08,0.006,0.157,0.016,0.229,0.027v2.412C101.383,36.706,101.252,36.696,101.125,36.689L101.125,36.689z M104.039,39.823v0.786
          c0,0.292,0.021,0.575,0.062,0.851c0.043,0.273,0.113,0.516,0.211,0.729c0.098,0.214,0.226,0.385,0.385,0.513
          c0.158,0.127,0.353,0.191,0.584,0.191c0.428,0,0.736-0.152,0.933-0.457c0.194-0.305,0.329-0.769,0.402-1.389h2.264
          c-0.048,1.145-0.353,2.016-0.912,2.612c-0.561,0.598-1.442,0.896-2.649,0.896c-0.912,0-1.625-0.152-2.137-0.457
          c-0.513-0.305-0.891-0.707-1.133-1.205c-0.244-0.5-0.395-1.06-0.447-1.682c-0.057-0.621-0.084-1.242-0.084-1.863
          c0-0.658,0.047-1.291,0.137-1.9c0.094-0.609,0.275-1.15,0.55-1.626c0.274-0.476,0.667-0.853,1.179-1.132
          c0.512-0.281,1.192-0.422,2.047-0.422c0.729,0,1.329,0.12,1.801,0.357c0.469,0.238,0.836,0.572,1.104,1.005
          c0.27,0.433,0.45,0.956,0.547,1.571c0.1,0.615,0.146,1.301,0.146,2.055v0.566L104.039,39.823L104.039,39.823z M106.542,37.329
          c-0.037-0.285-0.101-0.529-0.19-0.73c-0.094-0.201-0.222-0.353-0.386-0.456s-0.375-0.156-0.63-0.156
          c-0.257,0-0.466,0.06-0.63,0.174c-0.166,0.116-0.297,0.269-0.394,0.458c-0.099,0.188-0.168,0.398-0.211,0.629
          c-0.041,0.232-0.063,0.463-0.063,0.694v0.384h2.577C106.604,37.948,106.579,37.616,106.542,37.329L106.542,37.329z"/>
  <g>
          <path style="fill:#6C96D5;" d="M24.834,32.84v10.89h-2.631V32.84h-2.85v-2.155h8.331v2.155H24.834L24.834,32.84z M32.974,36.064
                  c-0.128-0.005-0.258-0.008-0.393-0.008c-0.22,0-0.438,0.03-0.659,0.091c-0.218,0.061-0.419,0.161-0.603,0.301
                  c-0.182,0.141-0.329,0.322-0.438,0.549c-0.11,0.225-0.165,0.503-0.165,0.831v5.902h-2.521V33.9h2.411v1.315h0.037
                  c0.257-0.475,0.566-0.855,0.932-1.142c0.367-0.287,0.81-0.431,1.334-0.431c0.073,0,0.148,0.004,0.228,0.01
                  c0.08,0.006,0.155,0.016,0.228,0.027v2.412C33.232,36.081,33.102,36.071,32.974,36.064L32.974,36.064z M38.629,43.73
                  c-0.086-0.159-0.15-0.327-0.193-0.503c-0.042-0.177-0.082-0.351-0.118-0.521h-0.037c-0.292,0.512-0.63,0.844-1.014,0.996
                  c-0.383,0.152-0.88,0.229-1.49,0.229c-0.437,0-0.81-0.076-1.113-0.229c-0.305-0.152-0.549-0.363-0.732-0.631
                  c-0.182-0.268-0.316-0.568-0.402-0.904c-0.085-0.334-0.128-0.666-0.128-0.994c0-0.465,0.05-0.863,0.147-1.198
                  c0.097-0.335,0.246-0.62,0.446-0.858c0.201-0.236,0.458-0.435,0.769-0.594c0.31-0.158,0.684-0.299,1.123-0.42l1.425-0.385
                  c0.378-0.097,0.64-0.23,0.786-0.401s0.219-0.419,0.219-0.749c0-0.377-0.088-0.672-0.265-0.886c-0.177-0.214-0.479-0.32-0.904-0.32
                  c-0.391,0-0.683,0.116-0.877,0.348c-0.195,0.231-0.292,0.542-0.292,0.931v0.275h-2.266v-0.238c0-0.572,0.091-1.051,0.274-1.434
                  c0.182-0.385,0.429-0.695,0.74-0.932c0.31-0.237,0.676-0.408,1.096-0.512c0.421-0.104,0.868-0.156,1.343-0.156
                  c0.756,0,1.365,0.074,1.828,0.221c0.462,0.145,0.821,0.352,1.078,0.62c0.255,0.268,0.429,0.589,0.52,0.96
                  c0.092,0.371,0.137,0.776,0.137,1.215v5.17c0,0.463,0.022,0.823,0.064,1.078c0.043,0.256,0.126,0.529,0.247,0.823L38.629,43.73
                  L38.629,43.73z M38.318,38.815c-0.171,0.134-0.354,0.24-0.549,0.318c-0.194,0.08-0.372,0.138-0.529,0.174
                  c-0.512,0.11-0.877,0.293-1.096,0.549c-0.22,0.256-0.33,0.604-0.33,1.041c0,0.379,0.074,0.701,0.22,0.969
                  c0.147,0.268,0.389,0.402,0.73,0.402c0.17,0,0.348-0.027,0.529-0.084c0.184-0.054,0.351-0.142,0.502-0.264
                  c0.153-0.121,0.277-0.279,0.375-0.476c0.098-0.194,0.147-0.426,0.147-0.694L38.318,38.815L38.318,38.815z M46.905,43.73v-6.779
                  c0-0.512-0.086-0.867-0.257-1.068c-0.17-0.201-0.445-0.302-0.821-0.302c-0.89,0-1.334,0.543-1.334,1.625v6.524h-2.521V33.9h2.413
                  v1.151h0.037c0.266-0.488,0.614-0.844,1.041-1.07c0.426-0.225,0.912-0.338,1.461-0.338c0.804,0,1.422,0.221,1.854,0.658
                  c0.432,0.439,0.649,1.152,0.649,2.138v7.291H46.905L46.905,43.73z M54.679,35.719c-0.166-0.237-0.454-0.357-0.869-0.357
                  c-0.315,0-0.593,0.089-0.831,0.265c-0.238,0.178-0.355,0.441-0.355,0.796c0,0.244,0.075,0.462,0.228,0.657
                  c0.151,0.195,0.441,0.36,0.867,0.494l1.517,0.51c0.791,0.269,1.353,0.619,1.681,1.051c0.329,0.433,0.493,1.021,0.493,1.764
                  c0,0.523-0.091,0.979-0.273,1.361c-0.183,0.384-0.437,0.703-0.759,0.959c-0.322,0.256-0.707,0.439-1.151,0.549
                  c-0.445,0.109-0.935,0.164-1.471,0.164c-0.706,0-1.294-0.066-1.764-0.2c-0.469-0.134-0.84-0.335-1.113-0.603
                  c-0.274-0.269-0.467-0.596-0.576-0.979c-0.11-0.384-0.165-0.812-0.165-1.288v-0.348h2.265v0.329c0,0.427,0.113,0.771,0.338,1.033
                  c0.225,0.262,0.552,0.393,0.978,0.393c0.389,0,0.7-0.098,0.932-0.293c0.231-0.193,0.348-0.487,0.348-0.877
                  c0-0.316-0.091-0.558-0.274-0.723c-0.182-0.164-0.396-0.295-0.64-0.392l-1.771-0.64c-0.694-0.244-1.218-0.587-1.571-1.031
                  c-0.354-0.445-0.531-1.015-0.531-1.71c0-0.401,0.067-0.781,0.201-1.142c0.134-0.359,0.348-0.673,0.639-0.941
                  c0.293-0.268,0.668-0.479,1.125-0.639c0.456-0.158,1.008-0.238,1.654-0.238c1.145,0,1.992,0.244,2.539,0.732
                  c0.548,0.486,0.823,1.176,0.823,2.063v0.401h-2.266C54.925,36.331,54.844,35.956,54.679,35.719L54.679,35.719z M58.213,43.73V33.9
                  h2.521v9.83H58.213L58.213,43.73z M58.213,30.539h2.521v2.155h-2.521V30.539L58.213,30.539z M65.203,41.766
                  c0.115,0.164,0.355,0.247,0.721,0.247c0.098,0,0.195-0.003,0.292-0.01c0.099-0.006,0.188-0.016,0.274-0.027v1.755
                  c-0.28,0-0.551,0.008-0.813,0.026c-0.262,0.018-0.538,0.027-0.831,0.027c-0.486,0-0.887-0.033-1.195-0.1
                  c-0.312-0.067-0.548-0.201-0.712-0.402c-0.164-0.201-0.277-0.466-0.338-0.794c-0.061-0.331-0.091-0.743-0.091-1.244v-5.626H61.23
                  V33.9h1.279v-2.814h2.521V33.9h1.462v1.718h-1.462v5.316C65.029,41.323,65.086,41.602,65.203,41.766L65.203,41.766z
                   M74.382,35.655l2.028,0.877c0.499,0.219,0.906,0.446,1.225,0.684c0.315,0.238,0.569,0.494,0.758,0.768
                  c0.189,0.273,0.32,0.575,0.395,0.905c0.07,0.329,0.107,0.694,0.107,1.096c0,1.376-0.397,2.378-1.195,3.006
                  c-0.797,0.627-1.909,0.94-3.334,0.94c-1.486,0-2.549-0.323-3.188-0.969c-0.64-0.645-0.96-1.571-0.96-2.776v-0.53h2.633v0.383
                  c0,0.305,0.022,0.582,0.072,0.833c0.049,0.249,0.141,0.459,0.273,0.63c0.135,0.17,0.312,0.305,0.539,0.402
                  c0.226,0.097,0.509,0.146,0.849,0.146c0.403,0,0.767-0.131,1.088-0.395c0.322-0.262,0.483-0.666,0.483-1.215
                  c0-0.292-0.038-0.544-0.118-0.758c-0.078-0.213-0.209-0.404-0.394-0.575c-0.184-0.171-0.424-0.325-0.722-0.466
                  c-0.299-0.141-0.667-0.283-1.104-0.43c-0.584-0.193-1.09-0.408-1.518-0.639c-0.426-0.231-0.783-0.502-1.068-0.813
                  c-0.285-0.312-0.496-0.67-0.629-1.078c-0.135-0.408-0.201-0.88-0.201-1.416c0-1.292,0.357-2.253,1.078-2.886
                  c0.717-0.634,1.705-0.951,2.959-0.951c0.584,0,1.123,0.064,1.617,0.191c0.492,0.128,0.918,0.335,1.278,0.622
                  c0.358,0.286,0.64,0.651,0.841,1.096c0.2,0.444,0.301,0.978,0.301,1.6v0.364h-2.521c0-0.621-0.11-1.098-0.329-1.435
                  c-0.221-0.335-0.585-0.503-1.098-0.503c-0.291,0-0.535,0.043-0.729,0.13c-0.194,0.085-0.351,0.198-0.466,0.338
                  c-0.116,0.139-0.195,0.302-0.236,0.483c-0.044,0.184-0.064,0.371-0.064,0.566c0,0.401,0.085,0.74,0.256,1.014
                  C73.457,35.17,73.822,35.423,74.382,35.655L74.382,35.655z M84.275,36.733c-0.03-0.232-0.084-0.442-0.164-0.633
                  c-0.079-0.188-0.191-0.339-0.338-0.455c-0.146-0.117-0.342-0.174-0.584-0.174c-0.305,0-0.556,0.07-0.75,0.21
                  c-0.193,0.141-0.34,0.347-0.438,0.62c-0.098,0.275-0.164,0.623-0.201,1.042c-0.035,0.421-0.054,0.917-0.054,1.489
                  c0,0.609,0.019,1.131,0.054,1.562c0.037,0.433,0.104,0.788,0.201,1.068c0.098,0.281,0.234,0.485,0.411,0.613
                  c0.176,0.127,0.405,0.191,0.685,0.191c0.428,0,0.736-0.184,0.934-0.549c0.193-0.365,0.292-0.949,0.292-1.754h2.411
                  c0,1.291-0.289,2.275-0.867,2.951c-0.579,0.676-1.538,1.014-2.877,1.014c-0.635,0-1.186-0.076-1.654-0.229
                  c-0.468-0.153-0.859-0.426-1.169-0.822c-0.312-0.395-0.545-0.926-0.704-1.59c-0.158-0.663-0.236-1.489-0.236-2.475
                  c0-1.012,0.098-1.848,0.293-2.514c0.193-0.663,0.469-1.192,0.82-1.588c0.354-0.396,0.773-0.673,1.262-0.832
                  c0.485-0.158,1.023-0.238,1.606-0.238c1.169,0,2.05,0.342,2.642,1.023c0.59,0.684,0.885,1.607,0.885,2.777h-2.41
                  C84.322,37.202,84.307,36.964,84.275,36.733L84.275,36.733z M94.717,41.043c-0.134,0.646-0.354,1.185-0.656,1.617
                  c-0.306,0.434-0.705,0.753-1.197,0.96c-0.493,0.207-1.1,0.311-1.818,0.311c-0.756,0.012-1.382-0.082-1.881-0.283
                  c-0.5-0.201-0.896-0.519-1.188-0.951c-0.293-0.432-0.5-0.974-0.621-1.625c-0.123-0.651-0.184-1.404-0.184-2.256
                  c0-0.84,0.066-1.584,0.201-2.229c0.134-0.645,0.354-1.185,0.658-1.616c0.305-0.433,0.703-0.762,1.195-0.988
                  c0.494-0.225,1.1-0.338,1.817-0.338c0.756-0.011,1.383,0.09,1.882,0.302c0.499,0.214,0.896,0.539,1.188,0.978
                  c0.293,0.439,0.5,0.98,0.621,1.627c0.123,0.646,0.184,1.4,0.184,2.266C94.918,39.655,94.852,40.399,94.717,41.043L94.717,41.043z
                   M92.105,36.165c-0.195-0.535-0.549-0.804-1.062-0.804c-0.304,0-0.548,0.086-0.729,0.257c-0.184,0.17-0.32,0.408-0.412,0.713
                  c-0.09,0.305-0.148,0.67-0.174,1.096c-0.022,0.426-0.035,0.89-0.035,1.389s0.013,0.961,0.035,1.387
                  c0.024,0.428,0.084,0.793,0.174,1.098c0.092,0.305,0.229,0.543,0.412,0.713c0.183,0.171,0.427,0.256,0.729,0.256
                  c0.513,0,0.865-0.269,1.062-0.805c0.194-0.535,0.291-1.419,0.291-2.648C92.396,37.585,92.3,36.702,92.105,36.165L92.105,36.165z
                   M100.5,36.064c-0.127-0.005-0.258-0.008-0.393-0.008c-0.221,0-0.438,0.03-0.658,0.091c-0.219,0.061-0.42,0.161-0.604,0.301
                  c-0.182,0.141-0.328,0.322-0.438,0.549c-0.108,0.225-0.164,0.503-0.164,0.831v5.902h-2.521V33.9h2.411v1.315h0.037
                  c0.257-0.475,0.565-0.855,0.933-1.142c0.365-0.287,0.81-0.431,1.334-0.431c0.072,0,0.147,0.004,0.228,0.01
                  c0.08,0.006,0.157,0.016,0.229,0.027v2.412C100.758,36.081,100.627,36.071,100.5,36.064L100.5,36.064z M103.414,39.198v0.786
                  c0,0.292,0.021,0.575,0.062,0.851c0.043,0.273,0.113,0.516,0.211,0.729c0.098,0.214,0.226,0.385,0.385,0.513
                  c0.158,0.127,0.353,0.191,0.584,0.191c0.428,0,0.736-0.152,0.933-0.457c0.194-0.305,0.329-0.769,0.402-1.389h2.264
                  c-0.048,1.145-0.353,2.016-0.912,2.612c-0.561,0.598-1.442,0.896-2.649,0.896c-0.912,0-1.625-0.152-2.137-0.457
                  c-0.513-0.305-0.891-0.707-1.133-1.205c-0.244-0.5-0.395-1.06-0.447-1.682c-0.057-0.621-0.084-1.242-0.084-1.863
                  c0-0.658,0.047-1.291,0.137-1.9c0.094-0.609,0.275-1.15,0.55-1.626c0.274-0.476,0.667-0.853,1.179-1.132
                  c0.512-0.281,1.192-0.422,2.047-0.422c0.729,0,1.329,0.12,1.801,0.357c0.469,0.238,0.836,0.572,1.104,1.005
                  c0.27,0.433,0.45,0.956,0.547,1.571c0.1,0.615,0.146,1.301,0.146,2.055v0.566L103.414,39.198L103.414,39.198z M105.917,36.704
                  c-0.037-0.285-0.101-0.529-0.19-0.73c-0.094-0.201-0.222-0.353-0.386-0.456s-0.375-0.156-0.63-0.156
                  c-0.257,0-0.466,0.06-0.63,0.174c-0.166,0.116-0.297,0.269-0.394,0.458c-0.099,0.188-0.168,0.398-0.211,0.629
                  c-0.041,0.232-0.063,0.463-0.063,0.694V37.7h2.577C105.979,37.323,105.954,36.991,105.917,36.704L105.917,36.704z"/>
  </g>
</g>
<g id="ts-text"><text transform="matrix(1 0 0 1 28 89)" style=" fill : #02456C; font-family : 'Verdana'; font-weight : bold; font-size : 52px; letter-spacing : -1; ">59</text>
</g>
</svg>